/* XPM */
static char *_b51aeb3e06a4ed69321833bbc05b0a7O8jTRKoAkddERupi[] = {
/* columns rows colors chars-per-pixel */
"24 24 144 2 ",
"   c white",
".  c black",
"X  c black",
"o  c black",
"O  c #000B00",
"+  c #0D62C4",
"@  c #49ABFF",
"#  c #4DAAFF",
"$  c #51ABFF",
"%  c #55ADFF",
"&  c #58AFFF",
"*  c #59B0FF",
"=  c #58B0FF",
"-  c #57AEFF",
";  c #54ADFF",
":  c #51AAFF",
">  c #0F6BC7",
",  c black",
"<  c #3D4F19",
"1  c #39471D",
"2  c #35390B",
"3  c #33390D",
"4  c #353A0B",
"5  c #32360A",
"6  c #32360B",
"7  c #353B0B",
"8  c #353A0F",
"9  c #32360E",
"0  c #2A361F",
"q  c #25311E",
"w  c #242B09",
"e  c #22280E",
"r  c #201700",
"t  c #221800",
"y  c #141200",
"u  c #161400",
"i  c #121203",
"p  c #131303",
"a  c #131303",
"s  c #141403",
"d  c #191903",
"f  c #1B1B03",
"g  c #232303",
"h  c #252503",
"j  c black",
"k  c #848407",
"l  c None",
"z  c #CACA08",
"x  c #C8C808",
"c  c #7D7D05",
"v  c black",
"b  c black",
"n  c black",
"m  c black",
"M  c black",
"N  c black",
"B  c black",
"V  c black",
"C  c black",
"Z  c black",
"A  c #279BFF",
"S  c #34A4FF",
"D  c #379FFF",
"F  c #3AA0FF",
"G  c #3DA1FF",
"H  c #40A4FF",
"J  c #41A3FF",
"K  c #42A5FF",
"L  c #40A3FF",
"P  c #3EA2FF",
"I  c #3EA3FF",
"U  c #389FFF",
"Y  c #289FFF",
"T  c #2F99FF",
"R  c #3499FF",
"E  c #3895FF",
"W  c #3B97FF",
"Q  c #3F99FF",
"!  c #419AFF",
"~  c #449CFF",
"^  c #459CFF",
"/  c #429BFF",
"(  c #409AFF",
")  c #3996FF",
"_  c #359BFF",
"`  c #2F9AFF",
"'  c #359AFF",
"]  c #3C98FF",
"[  c #469DFF",
"{  c #439BFF",
"}  c #3493FF",
"|  c #2E97FF",
" . c #3393FF",
".. c #3795FF",
"X. c #3A97FF",
"o. c #3D98FF",
"O. c #3E99FF",
"+. c #349AFF",
"@. c #2E9AFF",
"#. c #2395FF",
"$. c #2E94FF",
"%. c #3498FF",
"&. c #3397FF",
"*. c #3497FF",
"=. c #3695FF",
"-. c #2496FF",
";. c #0C88FF",
":. c #0F86FF",
">. c #1080FF",
",. c #1282FF",
"<. c #1683FF",
"1. c #1684FF",
"2. c #1784FF",
"3. c #1986FF",
"4. c #1682FF",
"5. c #1482FF",
"6. c #1583FF",
"7. c #1382FF",
"8. c #0E89FF",
"9. c #92D0AC",
"0. c #8ECAA5",
"q. c #8FC39E",
"w. c #89C49E",
"e. c #92C59F",
"r. c #8BC5A0",
"t. c #93C5A2",
"y. c #8CC5A2",
"u. c #93C5A0",
"i. c #8BC59F",
"p. c #94D2AD",
"a. c yellow",
"s. c #FFFF0E",
"d. c #FFFF09",
"f. c #FFFF0A",
"g. c #FFFF0C",
"h. c #FFFF0D",
"j. c #FFFF0F",
"k. c #FFFF10",
"l. c #FFFF12",
"z. c #FFFF13",
"x. c #FFFF14",
"c. c #FFFF15",
"v. c #FFFF11",
"b. c #FFFF0B",
/* pixels */
"                                                ",
"                                                ",
"                                                ",
"  . X o o o o o o o o o o o o o o o o o o X .   ",
"O + @ # $ % & * = * - ; ; - * = * & % : # @ > , ",
"< A S D F G H J K K L P P L J K J H I F U S Y 1 ",
"2 T R E W Q ! ~ ^ ~ / ( ( / ~ ^ ~ ! Q W ) _ ` 3 ",
"4 T ' ) ] ( / ~ [ ^ { ( ( / ^ [ ^ / ( ] ) ' T 5 ",
"4 T } E W Q ! { ^ ~ / ( ( ! ~ ^ ~ ! Q W ) ' ` 6 ",
"7 |  ...X.o.( ! / ! ( O.O.( ! / ! ( o.X...+.@.6 ",
"8 #. .$.) W o.Q ( Q O.%.&.O.Q ( Q o.*.) =. .-.9 ",
"0 ;.:.>.,.<.1.2.3.3.1.4.5.1.3.3.2.1.6.7.>.:.8.q ",
"w 9.0.q.w.e.r.t.y.y.u.i.i.u.y.y.t.u.e.w.q.0.p.e ",
"r a.a.a.a.a.a.a.a.a.a.a.a.a.a.a.a.a.a.a.a.a.a.t ",
"y s.d.f.g.h.s.j.j.j.h.g.g.h.j.j.j.s.h.g.f.d.s.u ",
"i g.j.k.l.z.x.c.c.c.c.x.z.c.c.c.c.x.z.l.v.j.g.p ",
"a b.h.s.j.k.v.l.l.l.v.v.v.v.l.l.l.v.k.j.s.h.b.s ",
"d f.b.g.h.s.s.j.j.j.s.s.s.s.j.j.j.s.s.h.g.b.f.f ",
"g f.f.f.f.b.b.b.b.b.b.b.b.b.b.b.b.b.b.f.f.f.f.h ",
"j k l z x x x x x x x x x x x x x x x x z l c v ",
"b n m M M M M M M M M M M M M M M M M M M N B V ",
"  X C Z Z Z Z Z Z Z Z Z Z Z Z Z Z Z Z Z Z C X   ",
"                                                ",
"                                                "
};
