/* XPM */
static char *d6b6cec9c35b419bb639be4c1b433852NQTejzr2VwE5Zijo[] = {
/* columns rows colors chars-per-pixel */
"24 24 252 2 ",
"   c None",
".  c #00043F",
"X  c #30042C",
"o  c #000C45",
"O  c #00154C",
"+  c #00154F",
"@  c #001E52",
"#  c #022256",
"$  c #0F2657",
"%  c #102857",
"&  c #162C5B",
"*  c #122E5E",
"=  c #132F5F",
"-  c #192F5C",
";  c #182E5D",
":  c #182E5E",
">  c #1E345F",
",  c #24345A",
"<  c #112C60",
"1  c #112E65",
"2  c #163464",
"3  c #1F3565",
"4  c #233765",
"5  c #283D67",
"6  c #273D68",
"7  c #233A6E",
"8  c #293D69",
"9  c #293E6A",
"0  c #2A3F6A",
"q  c #213E70",
"w  c #4E2446",
"e  c #483C5D",
"r  c #2B416B",
"t  c #30426C",
"y  c #33436D",
"u  c #32466E",
"i  c #2F4773",
"p  c #314570",
"a  c #364E75",
"s  c #3B4872",
"d  c #394C74",
"f  c #3B4F76",
"g  c #3D4E75",
"h  c #344879",
"j  c #384E79",
"k  c #484B6B",
"l  c #405379",
"z  c #415579",
"x  c #46527D",
"c  c #47527D",
"v  c #47597D",
"b  c #47597E",
"n  c #48597E",
"m  c #495A7F",
"M  c #4A5B7F",
"N  c #6A4567",
"B  c #686C6E",
"V  c #737476",
"C  c #85040C",
"Z  c #AF0000",
"A  c #B10000",
"S  c #B10002",
"D  c #B00003",
"F  c #B30005",
"G  c #B70006",
"H  c #B10711",
"J  c #B10A15",
"K  c #B20F17",
"L  c #A81119",
"P  c #AA1119",
"I  c #A81219",
"U  c #AA1219",
"Y  c #A8131B",
"T  c #A9131B",
"R  c #AA131B",
"E  c #B4111C",
"W  c #B6171F",
"Q  c #B5181F",
"!  c #B51A21",
"~  c #BC1C23",
"^  c #9F252A",
"/  c #A1252C",
"(  c #A1262D",
")  c #A3262C",
"_  c #A2272C",
"`  c #A4252C",
"'  c #A4272D",
"]  c #A1282D",
"[  c #A2292E",
"{  c #A4282E",
"}  c #A42A2E",
"|  c #AA2B33",
" . c #B52F36",
".. c #C00002",
"X. c #CB070A",
"o. c #C10A15",
"O. c #CA0A13",
"+. c #C91A24",
"@. c #D62829",
"#. c #C12B33",
"$. c #CC313B",
"%. c #CF353D",
"&. c #C9383F",
"*. c #BB3A41",
"=. c #C93A43",
"-. c #CE3F46",
";. c #A64D52",
":. c #A64E54",
">. c #A85157",
",. c #A7525A",
"<. c #A9545B",
"1. c #AF5B5D",
"2. c #B05358",
"3. c #C7444B",
"4. c #CE4049",
"5. c #CE434B",
"6. c #D1454B",
"7. c #E14B4E",
"8. c #C16165",
"9. c #C96766",
"0. c #365280",
"q. c #395787",
"w. c #485380",
"e. c #4C5D80",
"r. c #4D5D81",
"t. c #4D5E81",
"y. c #4E5F82",
"u. c #4F6083",
"i. c #4C6389",
"p. c #516285",
"a. c #526385",
"s. c #58628B",
"d. c #50698F",
"f. c #5E6F8A",
"g. c #4E6C93",
"h. c #576A90",
"j. c #5C6E98",
"k. c #597790",
"l. c #5D7493",
"z. c #58729C",
"x. c #626F92",
"c. c #637191",
"v. c #637492",
"b. c #627394",
"n. c #607597",
"m. c #6D7A97",
"M. c #647499",
"N. c #64789D",
"B. c #67799C",
"V. c #68789A",
"C. c #6D7B99",
"Z. c #6F789A",
"A. c #6F7E99",
"S. c #6D7C9A",
"D. c #6D7D9C",
"F. c #6C7C9E",
"G. c #717E9C",
"H. c #6080A3",
"J. c #7484A2",
"K. c #7885A1",
"L. c #768AA7",
"P. c #7C8AA4",
"I. c #7E8BA6",
"U. c #7489AC",
"Y. c #7D90AA",
"T. c #7799B7",
"R. c #AD8183",
"E. c #AD8284",
"W. c #AD8385",
"Q. c #AE8385",
"!. c #B28586",
"~. c #BB8589",
"^. c #B88A8A",
"/. c #B39D9F",
"(. c #818FA9",
"). c #838EA8",
"_. c #8491A8",
"`. c #8592AA",
"'. c #8692AB",
"]. c #8995AC",
"[. c #8995AD",
"{. c #8A94AC",
"}. c #8B95AE",
"|. c #8497B0",
" X c #8090B5",
".X c #8394B5",
"XX c #8F9AB0",
"oX c #939FB2",
"OX c #B39EA0",
"+X c #B59FA2",
"@X c #BF9FA2",
"#X c #AAACAD",
"$X c #ACAEAF",
"%X c #B5A0A3",
"&X c #BFA0A3",
"*X c #BEA7A9",
"=X c #B3B3B6",
"-X c #B3B4B7",
";X c #C99597",
":X c #D19698",
">X c #C5A59F",
",X c #C5A5A0",
"<X c #C5A6A2",
"1X c #C6A7A2",
"2X c #C6A7A3",
"3X c #C6A8A3",
"4X c #D3B1AF",
"5X c #C4B7B7",
"6X c #C4B9B7",
"7X c #C6B9B9",
"8X c #D3B4B6",
"9X c #CFC2C0",
"0X c #D0C3C1",
"qX c #DACACB",
"wX c #CFDDDD",
"eX c #CFDFDE",
"rX c #CFDFDF",
"tX c #D0DEDE",
"yX c #EBC2C2",
"uX c #E1CFD0",
"iX c #D1E0DF",
"pX c #D7E0E2",
"aX c #D3E0E4",
"sX c #DAE3E1",
"dX c #D8E0E4",
"fX c #DAE1E5",
"gX c #DAE2E4",
"hX c #DBE2E4",
"jX c #DBE2E5",
"kX c #DCE3E7",
"lX c #DBE7E6",
"zX c #DDE4E6",
"xX c #DCF3F5",
"cX c #E5ECEF",
"vX c #E6EEEE",
"bX c #E7EFEF",
"nX c #E9EFEF",
"mX c #EBEEEE",
"MX c #E8F0EE",
"NX c #F2F1E9",
"BX c #E8F0F0",
"VX c #EEF2F1",
"CX c #EFF5FC",
"ZX c #EEFFFF",
"AX c #EFFFFF",
"SX c #F1F5F5",
"DX c #F1FFFF",
"FX c #FCFBFB",
"GX c #FFFFF8",
"HX c #FAFFFF",
"JX c #FCFFFF",
"KX c white",
/* pixels */
"                                                ",
"                                                ",
"                                                ",
"                                                ",
"  , s s.x w.x.x C.d G.y N.N 7.6.5.5.-.=.&.%.C   ",
"  q.j.z i.d.M M.u.F.e.N.0.n.GXVXmXMXcXcXBXSXFX  ",
"  U.a b.e.e.C.l P.g '.p L.k.NXsXiXtXrXrXrXlXmX  ",
"  q J.h a.f.d P.u ].9 '.2 w @.~ W E K J H o.+.  ",
"   X3 v.v M S.5 ].4 XX; Y.T.KXKXKXKXKXKXKXKXKX  ",
"  1 F.9 e.a.y K.> ].& '.# e 9.1.<.,.>.:.;.2.8.  ",
"  .X7 c.v v m.6 ].; oX% |.k :X^.!.W.W.W.R.~.;X  ",
"  < V.9 M e.r S.; ).$ ).@ H.KXKXKXKXKXKXKXKXKX  ",
"  z.O i = = j O h.o l.. g.X X.G F A A Z A ..O.  ",
"  CXcXkXkXzXdXdXdXdXdXpXaXxXKXDXAXAXAXAXDXHXKX  ",
"  yX4X>X<X<X3X3X<X<X3X<X@X&X&X%X%X%X+XOX/.*X8X  ",
"  3. .' ) ' { { { { { { ) ] ] ] ] ) ) ^ ) | *.  ",
"  KXKXKXKXKXKXKXKXKXKXKXKXKXKXKXKXKXKXKXKXKXKX  ",
"  $.! U U U U U U U U U U U U U U U U U U Q #.  ",
"  uX0X7X5X6X6X6X6X6X6X6X6X6X6X6X6X6X6X5X7X9XqX  ",
"  V -X$X#X#X#X#X#X#X#X#X#X#X#X#X#X#X#X#X$X=XB   ",
"                                                ",
"                                                ",
"                                                ",
"                                                "
};
